<?xml version="1.0" encoding="UTF-8"?>
<svg width="128px" height="128px" viewBox="0 0 128 128" version="1.1" xmlns="http://www.w3.org/2000/svg">
    <g stroke="none" stroke-width="1" fill="none" fill-rule="evenodd">
        <rect fill="#232F3E" x="0" y="0" width="128" height="128"/>
        <path d="M64,32 C46.33,32 32,46.33 32,64 C32,81.67 46.33,96 64,96 C81.67,96 96,81.67 96,64 C96,46.33 81.67,32 64,32 Z M64,88 C52.95,88 44,79.05 44,68 C44,56.95 52.95,48 64,48 C75.05,48 84,56.95 84,68 C84,79.05 75.05,88 64,88 Z" fill="#FF9900"/>
        <path d="M64,40 C52.95,40 44,48.95 44,60 C44,71.05 52.95,80 64,80 C75.05,80 84,71.05 84,60 C84,48.95 75.05,40 64,40 Z" fill="#232F3E"/>
    </g>
</svg> 