<?xml version="1.0" encoding="UTF-8"?>
<svg width="128px" height="128px" viewBox="0 0 128 128" version="1.1" xmlns="http://www.w3.org/2000/svg">
    <g stroke="none" stroke-width="1" fill="none" fill-rule="evenodd">
        <path d="M63,0 C28.2,0 30,14 30,14 L30,28 L64,28 L64,32 L19,32 C19,32 0,30.2 0,64 C0,97.8 19,96 19,96 L30,96 L30,81.6 C30,81.6 29.4,62 49.8,62 L83.4,62 C83.4,62 102,62.6 102,43 L102,14 C102,14 104.4,0 63,0 Z M46,10 C49.3137085,10 52,12.6862915 52,16 C52,19.3137085 49.3137085,22 46,22 C42.6862915,22 40,19.3137085 40,16 C40,12.6862915 42.6862915,10 46,10 Z" fill="#3776AB"/>
        <path d="M65,128 C99.8,128 98,114 98,114 L98,100 L64,100 L64,96 L109,96 C109,96 128,97.8 128,64 C128,30.2 109,32 109,32 L98,32 L98,46.4 C98,46.4 98.6,66 78.2,66 L44.6,66 C44.6,66 26,65.4 26,85 L26,114 C26,114 23.6,128 65,128 Z M82,118 C78.6862915,118 76,115.313708 76,112 C76,108.686292 78.6862915,106 82,106 C85.3137085,106 88,108.686292 88,112 C88,115.313708 85.3137085,118 82,118 Z" fill="#FFD43B"/>
    </g>
</svg> 