<?xml version="1.0" encoding="UTF-8"?>
<svg width="128px" height="128px" viewBox="0 0 128 128" version="1.1" xmlns="http://www.w3.org/2000/svg">
    <g stroke="none" stroke-width="1" fill="none" fill-rule="evenodd">
        <rect fill="#007ACC" x="0" y="0" width="128" height="128"/>
        <path d="M22.67,47.99c0,12.73,8.54,15.57,21.01,15.57,4.42,0,9.27-0.47,13.07-1.24v13.57c-4.42,1.24-10.27,1.86-15.57,1.86-22.67,0-33.02-11.86-33.02-29.02,0-17.16,10.35-29.02,33.02-29.02,5.3,0,11.15,0.62,15.57,1.86v13.57c-3.8-0.77-8.65-1.24-13.07-1.24-12.47,0-21.01,2.84-21.01,15.57z" fill="#FFFFFF"/>
        <path d="M105.33,47.99c0,12.73,8.54,15.57,21.01,15.57,4.42,0,9.27-0.47,13.07-1.24v13.57c-4.42,1.24-10.27,1.86-15.57,1.86-22.67,0-33.02-11.86-33.02-29.02,0-17.16,10.35-29.02,33.02-29.02,5.3,0,11.15,0.62,15.57,1.86v13.57c-3.8-0.77-8.65-1.24-13.07-1.24-12.47,0-21.01,2.84-21.01,15.57z" fill="#FFFFFF"/>
    </g>
</svg> 